<svg width="40" height="40" viewBox="0 0 40 40" fill="none" xmlns="http://www.w3.org/2000/svg">
<g clip-path="url(#clip0_40319_606)">
<path d="M32.5839 4.44957C32.5607 4.4264 32.5144 4.40322 32.4912 4.35687C32.5144 4.40322 32.5607 4.4264 32.5839 4.44957Z" fill="#FFFAF7"/>
<path d="M32.1434 4.10192C32.2593 4.19462 32.3752 4.28732 32.4911 4.35684C32.3752 4.28732 32.2593 4.19462 32.1434 4.10192C32.1203 4.07874 32.0739 4.05557 32.0507 4.03239L32.0044 4.00922L32.0507 4.03239C32.0739 4.05557 32.1203 4.07874 32.1434 4.10192Z" fill="#FFFAF7"/>
<path d="M31.9582 3.96291L31.8887 3.91656L31.9582 3.96291Z" fill="#FFFAF7"/>
<path d="M31.7036 3.77751C31.7267 3.80068 31.7267 3.80068 31.7499 3.82386C31.7499 3.80068 31.7267 3.80068 31.7036 3.77751L31.6572 3.75433L31.7036 3.77751Z" fill="#FFFAF7"/>
<path d="M31.6801 3.75434C31.6338 3.73116 31.6106 3.70799 31.5874 3.68481C31.6106 3.70799 31.6338 3.73116 31.6801 3.75434Z" fill="#FFFAF7"/>
<path d="M31.2628 3.47626C31.2165 3.45309 31.1933 3.42991 31.147 3.40674C31.1933 3.42991 31.2397 3.45309 31.2628 3.47626Z" fill="#FFFAF7"/>
<path d="M23.291 0.278082C23.2215 0.254907 23.1288 0.254907 23.0592 0.231732C23.0129 0.231732 22.9897 0.231732 22.9434 0.208557C22.9897 0.208557 23.0129 0.208557 23.0592 0.231732C23.1288 0.231732 23.2215 0.254907 23.291 0.278082Z" fill="#FFFAF7"/>
<path d="M28.4588 1.87718C28.2502 1.78448 28.0648 1.69178 27.8794 1.62225C28.088 1.69178 28.2734 1.78448 28.4588 1.87718Z" fill="#FFFAF7"/>
<path d="M30.7764 3.15179C30.8227 3.17497 30.8691 3.19814 30.8922 3.22132C30.8691 3.19814 30.8227 3.17497 30.7764 3.15179Z" fill="#FFFAF7"/>
<path d="M26.0721 0.92699C26.0257 0.903815 25.9793 0.903815 25.933 0.88064C25.8866 0.857465 25.8403 0.857465 25.7939 0.83429C25.8403 0.857465 25.8866 0.857465 25.933 0.88064C25.9562 0.903815 26.0025 0.92699 26.0721 0.92699Z" fill="#FFFAF7"/>
<path d="M25.3071 0.718427C25.2839 0.695251 25.2607 0.695251 25.2375 0.695251H25.2144H25.2375C25.2607 0.695251 25.2839 0.695251 25.3071 0.718427Z" fill="#FFFAF7"/>
<path d="M27.7402 1.55273C27.8098 1.57591 27.8561 1.59908 27.8793 1.62226C27.8329 1.59908 27.8098 1.57591 27.7402 1.55273Z" fill="#FFFAF7"/>
<path d="M30.2666 2.82731L30.3593 2.89684C30.4288 2.94319 30.4983 2.96636 30.5447 3.01271C30.4751 2.96636 30.4288 2.94319 30.3593 2.89684L30.2666 2.82731C30.2434 2.82731 30.2434 2.80414 30.2202 2.80414C30.2434 2.82731 30.2434 2.82731 30.2666 2.82731Z" fill="#FFFAF7"/>
<path d="M32.746 4.58859C32.6996 4.54224 32.6533 4.51907 32.6069 4.47272C32.6533 4.51907 32.6996 4.54224 32.746 4.58859Z" fill="#FFFAF7"/>
<path d="M29.9885 2.66506C30.0348 2.68824 30.0812 2.71141 30.1275 2.73459C30.0812 2.71141 30.0348 2.68824 29.9885 2.66506L29.9653 2.64189C29.9421 2.64189 29.9421 2.61871 29.9189 2.61871C29.9421 2.61871 29.9421 2.64189 29.9653 2.64189L29.9885 2.66506Z" fill="#FFFAF7"/>
<path d="M28.5054 1.90031L28.6676 1.99301C28.7371 2.01619 28.8066 2.06254 28.853 2.08571C28.7835 2.06254 28.7139 2.01619 28.6676 1.99301L28.5054 1.90031C28.5054 1.90031 28.5054 1.87714 28.5054 1.90031C28.5054 1.90031 28.5054 1.87714 28.5054 1.90031Z" fill="#FFFAF7"/>
<path d="M27.0221 1.27458C27.1612 1.32093 27.3234 1.39045 27.5088 1.45998C27.532 1.45998 27.532 1.45998 27.5551 1.48315C27.532 1.48315 27.532 1.48315 27.5088 1.45998C27.3234 1.39045 27.1612 1.32093 27.0221 1.27458L26.9294 1.2514H26.9062H26.9294L27.0221 1.27458Z" fill="#FFFAF7"/>
<path d="M0.208496 17.1031C0.208496 17.0799 0.208496 17.0336 0.231671 17.0104V16.9872V17.0104C0.208496 17.0336 0.208496 17.0568 0.208496 17.1031Z" fill="#FFFAF7"/>
<path d="M0.115723 17.7752C0.115723 17.752 0.115723 17.7289 0.115723 17.7057C0.138898 17.7289 0.115723 17.752 0.115723 17.7752Z" fill="#FFFAF7"/>
<path d="M0.0466125 18.54V18.5168C0.0466125 18.5168 0.0466125 18.5168 0.0466125 18.54C0.0466125 18.6095 0.0234375 18.7022 0.0234375 18.7717C0.0466125 18.679 0.0466125 18.6095 0.0466125 18.54Z" fill="#FFFAF7"/>
<path d="M10.4521 26.7207C10.4521 26.7439 10.4753 26.7671 10.4753 26.7671C10.4521 26.7671 10.4521 26.7439 10.4521 26.7207Z" fill="#FFFAF7"/>
<path d="M20.7417 0.0231323C21.182 0.0463073 21.6455 0.0694823 22.0858 0.115832C21.6455 0.0694823 21.2052 0.0231323 20.7417 0.0231323Z" fill="#FFFAF7"/>
<path d="M24.1948 0.440308C24.3339 0.463483 24.4497 0.486658 24.5656 0.533008C24.4497 0.486658 24.3107 0.463483 24.1948 0.440308Z" fill="#FFFAF7"/>
<path d="M28.8994 2.08575C29.2007 2.2248 29.4788 2.38703 29.7569 2.54925C29.4788 2.38703 29.2007 2.2248 28.8994 2.08575Z" fill="#FFFAF7"/>
<path d="M33.0243 4.82037C32.9779 4.79719 32.9547 4.75084 32.9084 4.72767L32.8389 4.65814L32.9084 4.72767C32.9547 4.75084 33.0011 4.79719 33.0243 4.82037Z" fill="#FFFAF7"/>
<path d="M13.4648 8.71381C15.1798 6.88298 17.2655 5.44614 19.6294 4.54231C20.3478 4.26421 21.0662 4.03246 21.8078 3.87024C21.0662 4.05564 20.3478 4.26421 19.6294 4.54231C17.2424 5.46931 15.1566 6.88298 13.4648 8.71381Z" fill="#FFFAF7"/>
<path d="M17.0106 34.183C15.0408 33.0011 13.3258 31.402 11.9817 29.4785C11.495 28.7832 11.0778 28.0648 10.707 27.3C11.0778 28.0416 11.495 28.7832 11.9817 29.4785C13.3258 31.3788 15.0408 32.9779 17.0106 34.183Z" fill="#FFFAF7"/>
<path d="M4.28737 30.2665C1.5759 27.5782 0.0695249 24.0092 0 20.2085V20.1622V20.0927C0 20.0695 0 20.0463 0 20.0463C0 20.0695 0 20.0927 0 20.0927C0 20.1158 0 20.139 0 20.1622V20.2085C0.0695249 24.0092 1.5759 27.5782 4.28737 30.2665C6.99884 32.9316 10.591 34.4148 14.4148 34.4148C15.0174 34.4148 15.6199 34.3685 16.2225 34.2989C15.6199 34.3685 15.0174 34.4148 14.4148 34.4148C10.591 34.4148 6.99884 32.9316 4.28737 30.2665Z" fill="#FFFAF7"/>
<path d="M33.4645 5.21436C33.5109 5.26071 33.5341 5.28389 33.5804 5.30706C33.5572 5.28389 33.5109 5.26071 33.4645 5.21436L33.4182 5.16801L33.395 5.14484L33.4182 5.16801L33.4645 5.21436Z" fill="#FFFAF7"/>
<path d="M34.0206 5.72424C33.9974 5.70106 33.9743 5.67789 33.9511 5.65471C33.9279 5.63154 33.8816 5.58519 33.8584 5.56201C33.8816 5.58519 33.9279 5.63154 33.9511 5.65471C33.9511 5.67789 33.9974 5.70106 34.0206 5.72424Z" fill="#FFFAF7"/>
<path d="M33.7197 5.44609C33.6965 5.42292 33.6501 5.39974 33.627 5.35339C33.6501 5.37657 33.6733 5.42292 33.7197 5.44609Z" fill="#FFFAF7"/>
<path d="M0.23175 16.9409V16.9872C0.23175 17.0104 0.23175 17.0568 0.208575 17.0799V17.1031C0.208575 17.1263 0.208575 17.1495 0.208575 17.1726V17.219V17.2422V17.2653V17.2885C0.208575 17.358 0.1854 17.4276 0.1854 17.4971C0.1854 17.5666 0.162225 17.613 0.162225 17.6825C0.162225 17.7057 0.162225 17.7288 0.162225 17.752C0.162225 17.8215 0.13905 17.8911 0.13905 17.9606C0.13905 18.0069 0.13905 18.0765 0.115875 18.1228V18.1692C0.115875 18.1923 0.115875 18.2155 0.115875 18.2387C0.115875 18.2619 0.115875 18.285 0.115875 18.3082C0.115875 18.3314 0.115875 18.3314 0.115875 18.3546C0.115875 18.3777 0.115875 18.3777 0.115875 18.4009C0.115875 18.4241 0.115875 18.4473 0.115875 18.4704V18.4936C0.115875 18.5631 0.0926999 18.6558 0.0926999 18.7254C0.0926999 18.7717 0.0926999 18.7949 0.0926999 18.8412C0.0926999 18.8876 0.0926999 18.9108 0.0926999 18.9571C0.0926999 18.9571 0.0926999 18.9571 0.0926999 18.9803V19.0035V19.0266V19.0498C0.0926999 19.0962 0.0926999 19.1425 0.0926999 19.1889C0.0926999 19.212 0.0926999 19.2352 0.0926999 19.2352C0.0926999 19.3279 0.0926999 19.3974 0.0926999 19.467C0.0926999 19.4901 0.0926999 19.4901 0.0926999 19.5133V19.5365C0.0926999 19.606 0.0926999 19.6755 0.0926999 19.7219V19.7682V19.7914V19.8609C0 19.9305 0 19.9305 0 19.9536C0 19.9768 0 19.9768 0 20C0 20.0232 0 20.0232 0 20.0463C0 20.0695 0 20.0927 0 20.0927V20.1622V20.2086C0.0463499 24.0093 1.5759 27.5782 4.28737 30.2433C6.99884 32.9084 10.591 34.3916 14.4148 34.3916C15.0174 34.3916 15.6199 34.3453 16.2225 34.2758C16.5006 34.2526 16.7555 34.2062 17.0336 34.1599C15.0637 32.978 13.3488 31.3789 12.0046 29.4554C11.518 28.7601 11.1008 28.0417 10.73 27.2769C10.6373 27.1147 10.5678 26.9293 10.4983 26.7671C10.4983 26.7439 10.4751 26.7207 10.4751 26.7207C9.54809 24.6118 9.06141 22.3407 9.06141 20C9.06141 16.5933 10.0811 13.3256 12.0278 10.5214C12.4681 9.87252 12.9548 9.26997 13.4878 8.71377C15.2028 6.88295 17.2885 5.4461 19.6524 4.54228C20.3708 4.26418 21.0892 4.03243 21.8308 3.8702C23.0591 3.56893 24.3337 3.42988 25.6315 3.42988C28.6443 3.42988 31.5411 4.241 34.0672 5.7242C34.044 5.70103 34.0209 5.67785 33.9977 5.65467C33.9745 5.6315 33.9282 5.58515 33.905 5.56198L33.8818 5.5388C33.8586 5.51562 33.8123 5.49245 33.7891 5.4461C33.7659 5.42292 33.7196 5.39975 33.6964 5.3534C33.6964 5.3534 33.6964 5.3534 33.6732 5.33022C33.6269 5.30705 33.6037 5.2607 33.5574 5.23753L33.511 5.19117L33.4878 5.168C33.4415 5.12165 33.3951 5.0753 33.3256 5.02895C33.2561 4.9826 33.2097 4.93625 33.1634 4.8899C33.1402 4.86673 33.117 4.86673 33.117 4.84355C33.0707 4.82038 33.0475 4.77403 33.0012 4.75085L32.9316 4.68133L32.8853 4.63498L32.8621 4.6118L32.8389 4.58863C32.7926 4.54228 32.7462 4.5191 32.6999 4.47275C32.6767 4.44958 32.6304 4.4264 32.6072 4.38005C32.4913 4.28735 32.3754 4.19465 32.2827 4.12513C32.2596 4.10195 32.2132 4.07878 32.19 4.0556L32.1437 4.03243L32.1205 4.00925C32.1205 4.00925 32.1205 4.00925 32.0973 4.00925L32.0278 3.9629L32.0046 3.93973L31.9119 3.8702L31.8888 3.84703C31.8656 3.82385 31.8656 3.82385 31.8424 3.80068L31.8192 3.7775C31.7961 3.75433 31.7497 3.73115 31.7265 3.70798L31.7034 3.6848C31.6107 3.61528 31.5411 3.56893 31.4484 3.4994C31.4021 3.47623 31.3789 3.45305 31.3326 3.42988L31.3094 3.4067C31.263 3.36035 31.1935 3.33718 31.1472 3.29083C31.124 3.29083 31.124 3.26765 31.1008 3.26765C31.0545 3.24448 31.0081 3.2213 30.9849 3.19813C30.9154 3.15178 30.8691 3.1286 30.7995 3.08225C30.73 3.0359 30.6837 3.01273 30.6141 2.96638L30.5214 2.89685C30.4983 2.89685 30.4983 2.87368 30.4751 2.87368C30.4519 2.87368 30.4287 2.8505 30.4056 2.8505C30.3824 2.8505 30.3824 2.82733 30.3592 2.82733C30.3129 2.80415 30.2665 2.78098 30.2202 2.7578L30.197 2.73463C30.1738 2.73463 30.1738 2.71145 30.1506 2.71145C30.1043 2.68828 30.0579 2.6651 30.0348 2.64193C30.0348 2.64193 30.0348 2.64193 30.0116 2.64193C29.7335 2.4797 29.4322 2.34065 29.1541 2.17843H29.1309C29.0614 2.15525 28.9919 2.1089 28.9455 2.08573L28.5052 1.90033C28.5052 1.90033 28.5052 1.90033 28.482 1.90033C28.2735 1.80763 28.0881 1.71493 27.9027 1.6454C27.8563 1.62223 27.81 1.59905 27.7636 1.59905H27.7404H27.7173L27.6477 1.57588C27.6246 1.57588 27.6014 1.5527 27.555 1.5527C27.5319 1.5527 27.5319 1.5527 27.5087 1.52953C27.3233 1.46 27.1611 1.39048 27.022 1.34413L26.9293 1.32095H26.9061L26.8134 1.29778C26.5585 1.20508 26.3268 1.11238 26.0487 1.04286C26.0487 1.04286 26.0487 1.04286 26.0255 1.04286C25.9791 1.01968 25.9328 1.01968 25.8864 0.996505C25.8401 0.97333 25.7937 0.97333 25.7474 0.950155C25.7242 0.950155 25.6779 0.92698 25.6547 0.92698C25.5388 0.903805 25.4461 0.857455 25.3302 0.834281C25.3071 0.834281 25.3071 0.834281 25.2839 0.834281C25.2839 0.695231 25.2607 0.695231 25.2375 0.695231H25.2144H25.1912C24.9826 0.648881 24.774 0.579356 24.5423 0.533006C24.4264 0.509831 24.2874 0.486656 24.1715 0.440306C23.9629 0.393956 23.7312 0.347606 23.5226 0.301256C23.4531 0.278081 23.3604 0.278081 23.2908 0.254906C23.2213 0.231731 23.1286 0.231731 23.0591 0.208556C23.0127 0.208556 22.9896 0.208556 22.9432 0.185381C22.8969 0.185381 22.8505 0.162206 22.8042 0.162206C22.5724 0.139031 22.3407 0.0926815 22.1089 0.0695065C21.6686 0.0231566 21.2051 -1.8388e-05 20.7648 -0.0231934C20.5098 -1.8388e-05 20.2549 -1.8388e-05 20 -1.8388e-05C19.5829 -1.8388e-05 19.1425 0.0231566 18.7254 0.0463316C18.679 0.0463316 18.6327 0.0463316 18.5863 0.0463316C18.1228 0.0695065 17.6593 0.115856 17.1958 0.185381C17.1031 0.208556 17.0336 0.208556 16.9409 0.231731L0.23175 16.9409Z" fill="#005FA3"/>
<path d="M39.7681 23.0359V23.0127C39.7681 22.9896 39.7681 22.9664 39.7913 22.92V22.8969C39.7913 22.8505 39.8145 22.8273 39.8145 22.781V22.7578V22.7346C39.8145 22.7115 39.8145 22.7115 39.8145 22.7115L39.8376 22.5956L39.8608 22.5029C39.8608 22.4102 39.884 22.3407 39.884 22.2711C39.884 22.2016 39.9072 22.1321 39.9072 22.0626C39.9072 21.993 39.9303 21.9467 39.9303 21.9003V21.854C39.9303 21.8076 39.9303 21.7845 39.9303 21.7381V21.7149V21.6918C39.9303 21.6454 39.9303 21.5991 39.9535 21.5295V21.5064C39.9535 21.4368 39.9767 21.3673 39.9767 21.2746C39.9767 21.2051 39.9767 21.1124 39.9999 21.0429V21.0197V20.9965V20.9733C39.9999 20.9038 39.9999 20.8343 39.9999 20.7879C39.9999 20.6952 39.9999 20.6257 39.9999 20.533V20.4867C39.9999 20.4171 39.9999 20.3708 39.9999 20.3013V20.1622C39.9999 20.1159 39.9999 20.0695 39.9999 20C39.9999 19.9536 39.9999 19.8841 39.9999 19.8378V19.7914C39.9535 15.9907 38.424 12.4218 35.7125 9.75666C33.001 7.09153 29.4089 5.60834 25.585 5.60834C24.7044 5.60834 23.8237 5.67786 22.9894 5.84009C24.9593 7.02201 26.6743 8.62108 28.0184 10.5446C29.9651 13.3256 30.9848 16.5933 30.9848 20.0232C30.9848 23.4299 29.9651 26.6976 28.0184 29.5017C26.1181 32.2132 23.4761 34.299 20.3938 35.4809C18.4935 36.2225 16.4773 36.5933 14.4147 36.5933C11.4019 36.5933 8.50508 35.7821 5.979 34.299H6.00218C6.02535 34.3221 6.02535 34.3221 6.04853 34.3453L6.09488 34.3916C6.11805 34.4148 6.1644 34.4612 6.18758 34.4844C6.23393 34.5307 6.30345 34.6002 6.37298 34.6466C6.41933 34.6929 6.46568 34.7161 6.48885 34.7624C6.55838 34.832 6.6279 34.9015 6.7206 34.971C6.76695 35.0174 6.8133 35.0637 6.85965 35.1101L6.88283 35.1333L7.02188 35.2491L7.04505 35.2723C7.0914 35.2955 7.11458 35.3418 7.16093 35.365L7.1841 35.3882L7.20728 35.4114C7.23045 35.4345 7.2768 35.4809 7.32315 35.504H7.34633H7.3695C7.39268 35.5272 7.43903 35.5504 7.4622 35.5736C7.57808 35.6663 7.67078 35.7358 7.78665 35.8285C7.80983 35.8517 7.833 35.8748 7.85618 35.8748C7.87935 35.898 7.90253 35.9212 7.94888 35.9444C7.97205 35.9676 7.97205 35.9675 7.99523 35.9675L8.0184 35.9907C8.06475 36.0139 8.1111 36.0602 8.15745 36.0834L8.2038 36.1066C8.22698 36.1298 8.25015 36.1298 8.27333 36.1529C8.2965 36.1761 8.34285 36.1993 8.36603 36.2225L8.41238 36.2456C8.50508 36.3152 8.5746 36.3615 8.6673 36.431C8.71365 36.4542 8.73683 36.4774 8.78318 36.5006L8.80635 36.5237L8.89905 36.5933L8.99175 36.6628C9.0381 36.686 9.08445 36.7323 9.15397 36.7555C9.20032 36.7787 9.26985 36.825 9.3162 36.8482H9.5016L9.73335 37.0568C9.75652 37.0799 9.80287 37.1031 9.84922 37.1263C9.91875 37.1726 9.98827 37.219 10.0578 37.2422C10.1041 37.2653 10.1737 37.3117 10.22 37.3349C10.5213 37.4971 10.8226 37.6593 11.1238 37.7984C11.1934 37.8215 11.2629 37.8679 11.3324 37.8911C11.3324 37.8911 11.3556 37.8911 11.3556 37.9142C11.4251 37.9374 11.4715 37.9838 11.541 38.0069C11.7264 38.0996 11.9118 38.1923 12.1204 38.2619C12.1667 38.285 12.2131 38.3082 12.2594 38.3314C12.2826 38.3314 12.2826 38.3546 12.3058 38.3546C12.3753 38.3777 12.4216 38.4009 12.4912 38.4241C12.6534 38.4936 12.8156 38.54 12.9778 38.6095C13.0242 38.6327 13.0937 38.6558 13.1401 38.679C13.395 38.7717 13.6499 38.8644 13.8817 38.9339C13.928 38.9571 13.9744 38.9571 14.0207 38.9803C14.0902 39.0035 14.1598 39.0266 14.2525 39.0498L14.322 39.073C14.4147 39.0962 14.5074 39.1193 14.5769 39.1425C14.6233 39.1657 14.6696 39.1657 14.716 39.1889C15.2722 39.3279 15.8284 39.467 16.3846 39.5597C16.4541 39.5828 16.5236 39.5828 16.6163 39.606C16.709 39.6292 16.7785 39.6292 16.8481 39.6524C16.9176 39.6755 17.0103 39.6755 17.0798 39.6755C18.0068 39.8146 18.9338 39.8609 19.884 39.8609C20.811 39.8609 21.7612 39.7914 22.6882 39.6755H22.7113C22.7809 39.6755 22.8504 39.6524 22.9431 39.6524L39.6522 22.9432C39.7681 23.0359 39.7681 23.0359 39.7681 23.0359Z" fill="#222222"/>
</g>
<defs>
<clipPath id="clip0_40319_606">
<rect width="40" height="40" fill="white"/>
</clipPath>
</defs>
</svg>
